<svg xmlns="http://www.w3.org/2000/svg" viewBox="0 0 1200 260" fill="none">
  <defs>
    <linearGradient id="bg" x1="0%" y1="0%" x2="100%" y2="100%">
      <stop offset="0%" stop-color="#0D1117"/><stop offset="50%" stop-color="#111827"/><stop offset="100%" stop-color="#0D1117"/>
    </linearGradient>
    <linearGradient id="ac" x1="0%" y1="0%" x2="100%" y2="0%">
      <stop offset="0%" stop-color="#0A84FF"/><stop offset="50%" stop-color="#00D4AA"/><stop offset="100%" stop-color="#7B61FF"/>
    </linearGradient>
    <filter id="tg"><feGaussianBlur stdDeviation="4" result="b"/><feMerge><feMergeNode in="b"/><feMergeNode in="SourceGraphic"/></feMerge></filter>
    <filter id="sg"><feGaussianBlur stdDeviation="20" result="b"/><feMerge><feMergeNode in="b"/><feMergeNode in="SourceGraphic"/></feMerge></filter>
  </defs>
  <rect width="1200" height="260" fill="url(#bg)"/>
  <g opacity="0.06" stroke="#0A84FF" stroke-width="0.5">
    <line x1="0" y1="40" x2="1200" y2="40"/><line x1="0" y1="80" x2="1200" y2="80"/>
    <line x1="0" y1="120" x2="1200" y2="120"/><line x1="0" y1="160" x2="1200" y2="160"/>
    <line x1="0" y1="200" x2="1200" y2="200"/>
    <line x1="100" y1="0" x2="100" y2="260"/><line x1="200" y1="0" x2="200" y2="260"/>
    <line x1="300" y1="0" x2="300" y2="260"/><line x1="400" y1="0" x2="400" y2="260"/>
    <line x1="500" y1="0" x2="500" y2="260"/><line x1="600" y1="0" x2="600" y2="260"/>
    <line x1="700" y1="0" x2="700" y2="260"/><line x1="800" y1="0" x2="800" y2="260"/>
    <line x1="900" y1="0" x2="900" y2="260"/><line x1="1000" y1="0" x2="1000" y2="260"/>
    <line x1="1100" y1="0" x2="1100" y2="260"/>
  </g>
  <g filter="url(#sg)">
    <circle cx="200" cy="130" r="60" fill="#0A84FF" opacity="0.07"/>
    <circle cx="600" cy="100" r="80" fill="#00D4AA" opacity="0.06"/>
    <circle cx="1000" cy="140" r="60" fill="#7B61FF" opacity="0.07"/>
  </g>
  <!-- Document + AI decoration left -->
  <g opacity="0.25">
    <rect x="60" y="60" width="30" height="40" rx="4" stroke="#0A84FF" stroke-width="1.2" fill="none"/>
    <rect x="68" y="70" width="14" height="2" rx="1" fill="#0A84FF" opacity="0.6"/>
    <rect x="68" y="76" width="10" height="2" rx="1" fill="#00D4AA" opacity="0.5"/>
    <rect x="68" y="82" width="16" height="2" rx="1" fill="#0A84FF" opacity="0.4"/>
    <circle cx="120" cy="70" r="3" fill="#00D4AA"/><circle cx="140" cy="90" r="2" fill="#7B61FF"/>
    <line x1="90" y1="75" x2="117" y2="70" stroke="#0A84FF" stroke-width="0.8"/>
    <line x1="120" y1="70" x2="140" y2="90" stroke="#00D4AA" stroke-width="0.6"/>
  </g>
  <!-- Chart decoration right -->
  <g opacity="0.25">
    <rect x="1060" y="70" width="6" height="30" rx="2" fill="#0A84FF"/>
    <rect x="1072" y="58" width="6" height="42" rx="2" fill="#00D4AA"/>
    <rect x="1084" y="50" width="6" height="50" rx="2" fill="#7B61FF"/>
    <rect x="1096" y="42" width="6" height="58" rx="2" fill="#0A84FF"/>
    <circle cx="1110" cy="130" r="2.5" fill="#00D4AA"/><circle cx="1130" cy="120" r="2" fill="#7B61FF"/>
    <line x1="1096" y1="100" x2="1110" y2="130" stroke="#00D4AA" stroke-width="0.6"/>
  </g>
  <g filter="url(#tg)">
    <text x="600" y="100" text-anchor="middle" font-family="'Segoe UI','SF Pro Display',Helvetica,Arial,sans-serif" font-size="50" font-weight="800" fill="url(#ac)" letter-spacing="-1">
      Weekly Report Assistant
    </text>
  </g>
  <text x="600" y="140" text-anchor="middle" font-family="'Segoe UI','SF Pro Display',Helvetica,Arial,sans-serif" font-size="18" font-weight="300" fill="#8B949E" letter-spacing="5">
    AI-POWERED REPORT ANALYSIS
  </text>
  <text x="600" y="178" text-anchor="middle" font-family="'Segoe UI','SF Pro Display',Helvetica,Arial,sans-serif" font-size="14" font-weight="400" fill="#58A6FF" opacity="0.7" letter-spacing="1">
    Upload · Extract · Analyze · Visualize
  </text>
  <rect x="300" y="210" width="600" height="2" rx="1" fill="url(#ac)" opacity="0.6"/>
  <circle cx="295" cy="211" r="3" fill="#0A84FF" opacity="0.6"/>
  <circle cx="905" cy="211" r="3" fill="#7B61FF" opacity="0.6"/>
</svg>
