<svg xmlns="http://www.w3.org/2000/svg" viewBox="0 0 120 120" fill="none">
  <defs>
    <linearGradient id="gd2" x1="0%" y1="100%" x2="100%" y2="0%"><stop offset="0%" stop-color="#0A84FF"/><stop offset="100%" stop-color="#00D4AA"/></linearGradient>
    <filter id="gld2"><feGaussianBlur stdDeviation="2.5" result="b"/><feMerge><feMergeNode in="b"/><feMergeNode in="SourceGraphic"/></feMerge></filter>
  </defs>
  <rect width="120" height="120" rx="24" fill="#0D1117"/>
  <g filter="url(#gld2)">
    <rect x="24" y="24" width="34" height="30" rx="5" stroke="#0A84FF" stroke-width="1.5" fill="#0A84FF" fill-opacity="0.08"/>
    <rect x="62" y="24" width="34" height="30" rx="5" stroke="#00D4AA" stroke-width="1.5" fill="#00D4AA" fill-opacity="0.08"/>
    <rect x="24" y="60" width="34" height="36" rx="5" stroke="#7B61FF" stroke-width="1.5" fill="#7B61FF" fill-opacity="0.08"/>
    <rect x="62" y="60" width="34" height="36" rx="5" stroke="#0A84FF" stroke-width="1.5" fill="#0A84FF" fill-opacity="0.08"/>
    <rect x="30" y="32" width="14" height="2" rx="1" fill="#0A84FF" opacity="0.6"/>
    <rect x="30" y="38" width="20" height="6" rx="1" fill="#0A84FF" opacity="0.3"/>
    <rect x="68" y="32" width="14" height="2" rx="1" fill="#00D4AA" opacity="0.6"/>
    <circle cx="79" cy="44" r="6" stroke="#00D4AA" stroke-width="3" stroke-dasharray="12 26" fill="none" opacity="0.7"/>
    <rect x="30" y="68" width="8" height="18" rx="2" fill="#7B61FF" opacity="0.5"/>
    <rect x="40" y="74" width="8" height="12" rx="2" fill="#7B61FF" opacity="0.35"/>
    <polyline points="68,88 74,80 80,84 86,72 92,76" stroke="#0A84FF" stroke-width="1.5" fill="none" opacity="0.6"/>
    <circle cx="86" cy="72" r="2" fill="#00D4AA" opacity="0.7"/>
  </g>
</svg>
