<svg xmlns="http://www.w3.org/2000/svg" viewBox="0 0 120 120" fill="none">
  <defs>
    <linearGradient id="gco" x1="0%" y1="0%" x2="100%" y2="100%">
      <stop offset="0%" stop-color="#7B61FF"/>
      <stop offset="100%" stop-color="#0A84FF"/>
    </linearGradient>
    <filter id="glco"><feGaussianBlur stdDeviation="2.5" result="b"/><feMerge><feMergeNode in="b"/><feMergeNode in="SourceGraphic"/></feMerge></filter>
  </defs>
  <rect width="120" height="120" rx="24" fill="#0D1117"/>
  <g filter="url(#glco)">
    <!-- Briefcase body -->
    <rect x="28" y="44" width="64" height="40" rx="6" stroke="url(#gco)" stroke-width="2" fill="#7B61FF" fill-opacity="0.08"/>
    <!-- Briefcase handle -->
    <path d="M46 44 L46 36 C46 32 50 28 54 28 L66 28 C70 28 74 32 74 36 L74 44" stroke="url(#gco)" stroke-width="2" fill="none"/>
    <!-- AI brain circuit inside briefcase -->
    <circle cx="50" cy="60" r="3" fill="#0A84FF" opacity="0.8"/>
    <circle cx="60" cy="54" r="3" fill="#7B61FF" opacity="0.8"/>
    <circle cx="70" cy="60" r="3" fill="#0A84FF" opacity="0.8"/>
    <circle cx="55" cy="70" r="3" fill="#00D4AA" opacity="0.8"/>
    <circle cx="65" cy="70" r="3" fill="#7B61FF" opacity="0.8"/>
    <line x1="50" y1="60" x2="60" y2="54" stroke="#0A84FF" stroke-width="1" opacity="0.5"/>
    <line x1="60" y1="54" x2="70" y2="60" stroke="#7B61FF" stroke-width="1" opacity="0.5"/>
    <line x1="50" y1="60" x2="55" y2="70" stroke="#00D4AA" stroke-width="1" opacity="0.5"/>
    <line x1="70" y1="60" x2="65" y2="70" stroke="#7B61FF" stroke-width="1" opacity="0.5"/>
    <line x1="55" y1="70" x2="65" y2="70" stroke="#00D4AA" stroke-width="1" opacity="0.4"/>
    <!-- Document lines below -->
    <rect x="40" y="90" width="16" height="2" rx="1" fill="#7B61FF" opacity="0.3"/>
    <rect x="60" y="90" width="20" height="2" rx="1" fill="#0A84FF" opacity="0.3"/>
    <rect x="44" y="95" width="32" height="2" rx="1" fill="#00D4AA" opacity="0.2"/>
  </g>
</svg>
