<svg xmlns="http://www.w3.org/2000/svg" viewBox="0 0 120 120" fill="none">
  <defs>
    <linearGradient id="gf" x1="0%" y1="0%" x2="100%" y2="100%">
      <stop offset="0%" stop-color="#0A84FF"/>
      <stop offset="100%" stop-color="#00D4AA"/>
    </linearGradient>
    <filter id="glf"><feGaussianBlur stdDeviation="2.5" result="b"/><feMerge><feMergeNode in="b"/><feMergeNode in="SourceGraphic"/></feMerge></filter>
  </defs>
  <rect width="120" height="120" rx="24" fill="#0D1117"/>
  <g filter="url(#glf)">
    <!-- Bank roof / triangle -->
    <path d="M60 26 L90 48 L30 48Z" stroke="url(#gf)" stroke-width="2" fill="#0A84FF" fill-opacity="0.08"/>
    <!-- Pillars -->
    <rect x="38" y="50" width="6" height="28" rx="1" fill="#0A84FF" opacity="0.7"/>
    <rect x="52" y="50" width="6" height="28" rx="1" fill="#00D4AA" opacity="0.7"/>
    <rect x="66" y="50" width="6" height="28" rx="1" fill="#0A84FF" opacity="0.7"/>
    <rect x="80" y="50" width="6" height="28" rx="1" fill="#00D4AA" opacity="0.7"/>
    <!-- Base -->
    <rect x="30" y="78" width="60" height="5" rx="2" fill="url(#gf)" opacity="0.6"/>
    <!-- Shield / compliance symbol on roof -->
    <path d="M60 32 L67 37 L67 43 C67 46 64 49 60 50 C56 49 53 46 53 43 L53 37Z" fill="#00D4AA" opacity="0.5"/>
    <circle cx="60" cy="42" r="2.5" fill="#0D1117"/>
    <!-- Data flow lines -->
    <line x1="34" y1="88" x2="34" y2="94" stroke="#0A84FF" stroke-width="1" opacity="0.3"/>
    <line x1="50" y1="88" x2="50" y2="94" stroke="#00D4AA" stroke-width="1" opacity="0.3"/>
    <line x1="70" y1="88" x2="70" y2="94" stroke="#0A84FF" stroke-width="1" opacity="0.3"/>
    <line x1="86" y1="88" x2="86" y2="94" stroke="#00D4AA" stroke-width="1" opacity="0.3"/>
    <circle cx="34" cy="96" r="1.5" fill="#0A84FF" opacity="0.4"/>
    <circle cx="50" cy="96" r="1.5" fill="#00D4AA" opacity="0.4"/>
    <circle cx="70" cy="96" r="1.5" fill="#0A84FF" opacity="0.4"/>
    <circle cx="86" cy="96" r="1.5" fill="#00D4AA" opacity="0.4"/>
  </g>
</svg>
