<svg xmlns="http://www.w3.org/2000/svg" viewBox="0 0 800 480" fill="none">
  <defs>
    <linearGradient id="bg1" x1="0%" y1="0%" x2="100%" y2="100%">
      <stop offset="0%" stop-color="#0D1117"/>
      <stop offset="100%" stop-color="#161B22"/>
    </linearGradient>
    <linearGradient id="card1" x1="0%" y1="0%" x2="100%" y2="100%">
      <stop offset="0%" stop-color="#0A84FF" stop-opacity="0.15"/>
      <stop offset="100%" stop-color="#0A84FF" stop-opacity="0.05"/>
    </linearGradient>
    <linearGradient id="card2" x1="0%" y1="0%" x2="100%" y2="100%">
      <stop offset="0%" stop-color="#00D4AA" stop-opacity="0.15"/>
      <stop offset="100%" stop-color="#00D4AA" stop-opacity="0.05"/>
    </linearGradient>
    <linearGradient id="card3" x1="0%" y1="0%" x2="100%" y2="100%">
      <stop offset="0%" stop-color="#7B61FF" stop-opacity="0.15"/>
      <stop offset="100%" stop-color="#7B61FF" stop-opacity="0.05"/>
    </linearGradient>
    <linearGradient id="accent1" x1="0%" y1="0%" x2="100%" y2="0%">
      <stop offset="0%" stop-color="#0A84FF"/>
      <stop offset="100%" stop-color="#00D4AA"/>
    </linearGradient>
    <filter id="glow"><feGaussianBlur stdDeviation="6" result="b"/><feMerge><feMergeNode in="b"/><feMergeNode in="SourceGraphic"/></feMerge></filter>
    <filter id="sglow"><feGaussianBlur stdDeviation="3" result="b"/><feMerge><feMergeNode in="b"/><feMergeNode in="SourceGraphic"/></feMerge></filter>
  </defs>

  <!-- Background -->
  <rect width="800" height="480" rx="16" fill="url(#bg1)"/>

  <!-- Subtle grid -->
  <g opacity="0.04" stroke="#0A84FF" stroke-width="0.5">
    <line x1="0" y1="60" x2="800" y2="60"/><line x1="0" y1="120" x2="800" y2="120"/>
    <line x1="0" y1="180" x2="800" y2="180"/><line x1="0" y1="240" x2="800" y2="240"/>
    <line x1="0" y1="300" x2="800" y2="300"/><line x1="0" y1="360" x2="800" y2="360"/>
    <line x1="0" y1="420" x2="800" y2="420"/>
    <line x1="100" y1="0" x2="100" y2="480"/><line x1="200" y1="0" x2="200" y2="480"/>
    <line x1="300" y1="0" x2="300" y2="480"/><line x1="400" y1="0" x2="400" y2="480"/>
    <line x1="500" y1="0" x2="500" y2="480"/><line x1="600" y1="0" x2="600" y2="480"/>
    <line x1="700" y1="0" x2="700" y2="480"/>
  </g>

  <!-- Ambient glow -->
  <g filter="url(#glow)" opacity="0.12">
    <circle cx="200" cy="200" r="120" fill="#0A84FF"/>
    <circle cx="600" cy="280" r="100" fill="#7B61FF"/>
    <circle cx="400" cy="120" r="80" fill="#00D4AA"/>
  </g>

  <!-- Sidebar -->
  <rect x="0" y="0" width="160" height="480" rx="16" fill="#0D1117" stroke="#1E2630" stroke-width="1"/>
  <rect x="155" y="0" width="5" height="480" fill="#1E2630" opacity="0.5"/>

  <!-- Sidebar logo area -->
  <circle cx="40" cy="36" r="14" stroke="#0A84FF" stroke-width="1.5" fill="#0A84FF" fill-opacity="0.1"/>
  <circle cx="40" cy="36" r="5" fill="#0A84FF" opacity="0.6"/>
  <rect x="62" y="28" width="60" height="6" rx="3" fill="#58A6FF" opacity="0.5"/>
  <rect x="62" y="38" width="40" height="4" rx="2" fill="#8B949E" opacity="0.3"/>

  <!-- Sidebar nav items -->
  <g opacity="0.4">
    <rect x="24" y="72" width="112" height="28" rx="6" fill="#0A84FF" fill-opacity="0.12" stroke="#0A84FF" stroke-width="0.8"/>
    <circle cx="38" cy="86" r="4" fill="#0A84FF" opacity="0.7"/>
    <rect x="50" y="82" width="56" height="5" rx="2.5" fill="#0A84FF" opacity="0.6"/>
  </g>
  <g opacity="0.25">
    <circle cx="38" cy="118" r="4" fill="#8B949E"/>
    <rect x="50" y="114" width="48" height="5" rx="2.5" fill="#8B949E" opacity="0.5"/>
    <circle cx="38" cy="148" r="4" fill="#8B949E"/>
    <rect x="50" y="144" width="60" height="5" rx="2.5" fill="#8B949E" opacity="0.5"/>
    <circle cx="38" cy="178" r="4" fill="#8B949E"/>
    <rect x="50" y="174" width="44" height="5" rx="2.5" fill="#8B949E" opacity="0.5"/>
    <circle cx="38" cy="208" r="4" fill="#8B949E"/>
    <rect x="50" y="204" width="52" height="5" rx="2.5" fill="#8B949E" opacity="0.5"/>
  </g>

  <!-- Top bar -->
  <rect x="160" y="0" width="640" height="56" fill="#0D1117" opacity="0.9"/>
  <line x1="160" y1="56" x2="800" y2="56" stroke="#1E2630" stroke-width="1"/>

  <!-- Search bar -->
  <rect x="200" y="14" width="240" height="28" rx="14" fill="#161B22" stroke="#30363D" stroke-width="1"/>
  <circle cx="218" cy="28" r="6" stroke="#8B949E" stroke-width="1.2" fill="none" opacity="0.5"/>
  <rect x="232" y="25" width="80" height="4" rx="2" fill="#8B949E" opacity="0.25"/>

  <!-- Action button -->
  <rect x="620" y="14" width="120" height="28" rx="14" fill="#0A84FF" opacity="0.8"/>
  <rect x="642" y="25" width="76" height="4" rx="2" fill="#fff" opacity="0.8"/>

  <!-- Agent count badge -->
  <rect x="750" y="16" width="32" height="24" rx="12" fill="#161B22" stroke="#30363D" stroke-width="1"/>
  <text x="766" y="32" text-anchor="middle" font-family="sans-serif" font-size="11" font-weight="600" fill="#58A6FF">39</text>

  <!-- ===== Agent Cards Grid ===== -->

  <!-- Card 1: Regulatory Agent -->
  <rect x="184" y="76" width="185" height="160" rx="12" fill="url(#card1)" stroke="#0A84FF" stroke-width="1" stroke-opacity="0.4"/>
  <g filter="url(#sglow)">
    <!-- Shield icon -->
    <rect x="200" y="92" width="36" height="36" rx="10" fill="#0A84FF" fill-opacity="0.15"/>
    <path d="M218 98 L230 104 L230 112 C230 118 225 122 218 125 C211 122 206 118 206 112 L206 104Z" stroke="#0A84FF" stroke-width="1.5" fill="none"/>
    <circle cx="218" cy="110" r="3" fill="#0A84FF" opacity="0.7"/>
  </g>
  <rect x="200" y="140" width="120" height="6" rx="3" fill="#C9D1D9" opacity="0.7"/>
  <rect x="200" y="152" width="152" height="4" rx="2" fill="#8B949E" opacity="0.35"/>
  <rect x="200" y="162" width="130" height="4" rx="2" fill="#8B949E" opacity="0.25"/>
  <!-- Tags -->
  <rect x="200" y="180" width="52" height="18" rx="9" fill="#0A84FF" fill-opacity="0.12" stroke="#0A84FF" stroke-width="0.6" stroke-opacity="0.4"/>
  <rect x="208" y="186" width="36" height="4" rx="2" fill="#0A84FF" opacity="0.5"/>
  <rect x="258" y="180" width="44" height="18" rx="9" fill="#00D4AA" fill-opacity="0.12" stroke="#00D4AA" stroke-width="0.6" stroke-opacity="0.4"/>
  <rect x="266" y="186" width="28" height="4" rx="2" fill="#00D4AA" opacity="0.5"/>
  <!-- Author -->
  <rect x="200" y="210" width="72" height="4" rx="2" fill="#8B949E" opacity="0.3"/>
  <rect x="320" y="210" width="36" height="4" rx="2" fill="#58A6FF" opacity="0.3"/>

  <!-- Card 2: Knowledge Graph -->
  <rect x="385" y="76" width="185" height="160" rx="12" fill="url(#card2)" stroke="#00D4AA" stroke-width="1" stroke-opacity="0.4"/>
  <g filter="url(#sglow)">
    <!-- Graph icon -->
    <rect x="401" y="92" width="36" height="36" rx="10" fill="#00D4AA" fill-opacity="0.15"/>
    <circle cx="413" cy="105" r="4" fill="#00D4AA" opacity="0.6"/>
    <circle cx="425" cy="115" r="3" fill="#00D4AA" opacity="0.5"/>
    <circle cx="419" cy="98" r="3" fill="#00D4AA" opacity="0.5"/>
    <line x1="413" y1="105" x2="425" y2="115" stroke="#00D4AA" stroke-width="1" opacity="0.5"/>
    <line x1="413" y1="105" x2="419" y2="98" stroke="#00D4AA" stroke-width="1" opacity="0.5"/>
  </g>
  <rect x="401" y="140" width="140" height="6" rx="3" fill="#C9D1D9" opacity="0.7"/>
  <rect x="401" y="152" width="150" height="4" rx="2" fill="#8B949E" opacity="0.35"/>
  <rect x="401" y="162" width="120" height="4" rx="2" fill="#8B949E" opacity="0.25"/>
  <rect x="401" y="180" width="48" height="18" rx="9" fill="#00D4AA" fill-opacity="0.12" stroke="#00D4AA" stroke-width="0.6" stroke-opacity="0.4"/>
  <rect x="409" y="186" width="32" height="4" rx="2" fill="#00D4AA" opacity="0.5"/>
  <rect x="455" y="180" width="52" height="18" rx="9" fill="#7B61FF" fill-opacity="0.12" stroke="#7B61FF" stroke-width="0.6" stroke-opacity="0.4"/>
  <rect x="463" y="186" width="36" height="4" rx="2" fill="#7B61FF" opacity="0.5"/>
  <rect x="401" y="210" width="64" height="4" rx="2" fill="#8B949E" opacity="0.3"/>
  <rect x="525" y="210" width="28" height="4" rx="2" fill="#58A6FF" opacity="0.3"/>

  <!-- Card 3: Smart Applications -->
  <rect x="586" y="76" width="185" height="160" rx="12" fill="url(#card3)" stroke="#7B61FF" stroke-width="1" stroke-opacity="0.4"/>
  <g filter="url(#sglow)">
    <!-- App grid icon -->
    <rect x="602" y="92" width="36" height="36" rx="10" fill="#7B61FF" fill-opacity="0.15"/>
    <rect x="608" y="98" width="10" height="10" rx="2" fill="#7B61FF" opacity="0.5"/>
    <rect x="622" y="98" width="10" height="10" rx="2" fill="#7B61FF" opacity="0.5"/>
    <rect x="608" y="112" width="10" height="10" rx="2" fill="#7B61FF" opacity="0.5"/>
    <rect x="622" y="112" width="10" height="10" rx="2" fill="#7B61FF" opacity="0.5"/>
  </g>
  <rect x="602" y="140" width="108" height="6" rx="3" fill="#C9D1D9" opacity="0.7"/>
  <rect x="602" y="152" width="148" height="4" rx="2" fill="#8B949E" opacity="0.35"/>
  <rect x="602" y="162" width="126" height="4" rx="2" fill="#8B949E" opacity="0.25"/>
  <rect x="602" y="180" width="48" height="18" rx="9" fill="#7B61FF" fill-opacity="0.12" stroke="#7B61FF" stroke-width="0.6" stroke-opacity="0.4"/>
  <rect x="610" y="186" width="32" height="4" rx="2" fill="#7B61FF" opacity="0.5"/>
  <rect x="656" y="180" width="44" height="18" rx="9" fill="#0A84FF" fill-opacity="0.12" stroke="#0A84FF" stroke-width="0.6" stroke-opacity="0.4"/>
  <rect x="664" y="186" width="28" height="4" rx="2" fill="#0A84FF" opacity="0.5"/>
  <rect x="602" y="210" width="80" height="4" rx="2" fill="#8B949E" opacity="0.3"/>
  <rect x="730" y="210" width="28" height="4" rx="2" fill="#58A6FF" opacity="0.3"/>

  <!-- Card 4: Project Q&A -->
  <rect x="184" y="252" width="185" height="160" rx="12" fill="url(#card2)" stroke="#00D4AA" stroke-width="1" stroke-opacity="0.4"/>
  <g filter="url(#sglow)">
    <rect x="200" y="268" width="36" height="36" rx="10" fill="#00D4AA" fill-opacity="0.15"/>
    <circle cx="218" cy="280" r="8" stroke="#00D4AA" stroke-width="1.5" fill="none"/>
    <text x="218" y="284" text-anchor="middle" font-family="sans-serif" font-size="11" font-weight="700" fill="#00D4AA">?</text>
    <circle cx="218" cy="294" r="1.5" fill="#00D4AA" opacity="0.5"/>
  </g>
  <rect x="200" y="316" width="96" height="6" rx="3" fill="#C9D1D9" opacity="0.7"/>
  <rect x="200" y="328" width="148" height="4" rx="2" fill="#8B949E" opacity="0.35"/>
  <rect x="200" y="338" width="120" height="4" rx="2" fill="#8B949E" opacity="0.25"/>
  <rect x="200" y="356" width="52" height="18" rx="9" fill="#00D4AA" fill-opacity="0.12" stroke="#00D4AA" stroke-width="0.6" stroke-opacity="0.4"/>
  <rect x="208" y="362" width="36" height="4" rx="2" fill="#00D4AA" opacity="0.5"/>
  <rect x="200" y="386" width="80" height="4" rx="2" fill="#8B949E" opacity="0.3"/>
  <rect x="324" y="386" width="32" height="4" rx="2" fill="#58A6FF" opacity="0.3"/>

  <!-- Card 5: Contract Review -->
  <rect x="385" y="252" width="185" height="160" rx="12" fill="url(#card1)" stroke="#0A84FF" stroke-width="1" stroke-opacity="0.4"/>
  <g filter="url(#sglow)">
    <rect x="401" y="268" width="36" height="36" rx="10" fill="#0A84FF" fill-opacity="0.15"/>
    <!-- Document with check -->
    <rect x="409" y="274" width="16" height="20" rx="2" stroke="#0A84FF" stroke-width="1.2" fill="none"/>
    <rect x="412" y="280" width="10" height="2" rx="1" fill="#0A84FF" opacity="0.5"/>
    <rect x="412" y="285" width="7" height="2" rx="1" fill="#0A84FF" opacity="0.4"/>
    <path d="M422 288 L425 291 L430 283" stroke="#00D4AA" stroke-width="1.5" fill="none"/>
  </g>
  <rect x="401" y="316" width="128" height="6" rx="3" fill="#C9D1D9" opacity="0.7"/>
  <rect x="401" y="328" width="152" height="4" rx="2" fill="#8B949E" opacity="0.35"/>
  <rect x="401" y="338" width="110" height="4" rx="2" fill="#8B949E" opacity="0.25"/>
  <rect x="401" y="356" width="48" height="18" rx="9" fill="#0A84FF" fill-opacity="0.12" stroke="#0A84FF" stroke-width="0.6" stroke-opacity="0.4"/>
  <rect x="409" y="362" width="32" height="4" rx="2" fill="#0A84FF" opacity="0.5"/>
  <rect x="401" y="386" width="72" height="4" rx="2" fill="#8B949E" opacity="0.3"/>
  <rect x="524" y="386" width="32" height="4" rx="2" fill="#58A6FF" opacity="0.3"/>

  <!-- Card 6: Smart Travel -->
  <rect x="586" y="252" width="185" height="160" rx="12" fill="url(#card3)" stroke="#7B61FF" stroke-width="1" stroke-opacity="0.4"/>
  <g filter="url(#sglow)">
    <rect x="602" y="268" width="36" height="36" rx="10" fill="#7B61FF" fill-opacity="0.15"/>
    <!-- Plane icon -->
    <path d="M614 290 L620 278 L628 286 L624 288 L628 292 L624 290 L620 298Z" fill="#7B61FF" opacity="0.6"/>
  </g>
  <rect x="602" y="316" width="112" height="6" rx="3" fill="#C9D1D9" opacity="0.7"/>
  <rect x="602" y="328" width="148" height="4" rx="2" fill="#8B949E" opacity="0.35"/>
  <rect x="602" y="338" width="132" height="4" rx="2" fill="#8B949E" opacity="0.25"/>
  <rect x="602" y="356" width="64" height="18" rx="9" fill="#7B61FF" fill-opacity="0.12" stroke="#7B61FF" stroke-width="0.6" stroke-opacity="0.4"/>
  <rect x="610" y="362" width="48" height="4" rx="2" fill="#7B61FF" opacity="0.5"/>
  <rect x="602" y="386" width="84" height="4" rx="2" fill="#8B949E" opacity="0.3"/>
  <rect x="730" y="386" width="28" height="4" rx="2" fill="#58A6FF" opacity="0.3"/>

  <!-- Floating connection lines between cards -->
  <g opacity="0.08">
    <line x1="369" y1="156" x2="385" y2="156" stroke="#00D4AA" stroke-width="1"/>
    <line x1="570" y1="156" x2="586" y2="156" stroke="#7B61FF" stroke-width="1"/>
    <line x1="369" y1="332" x2="385" y2="332" stroke="#0A84FF" stroke-width="1"/>
    <line x1="570" y1="332" x2="586" y2="332" stroke="#7B61FF" stroke-width="1"/>
  </g>

  <!-- Bottom status bar -->
  <rect x="160" y="448" width="640" height="32" fill="#0D1117" opacity="0.8"/>
  <line x1="160" y1="448" x2="800" y2="448" stroke="#1E2630" stroke-width="1"/>
  <circle cx="185" cy="464" r="4" fill="#00D4AA" opacity="0.6"/>
  <rect x="196" y="461" width="100" height="4" rx="2" fill="#8B949E" opacity="0.25"/>
</svg>
